<svg width="19" height="22" viewBox="0 0 19 22" fill="none" xmlns="http://www.w3.org/2000/svg">
<path d="M18.9868 21.1327C12.6577 21.1327 6.32915 21.1327 0 21.1327C0 20.4349 0 19.7372 0 19.0159C0.705166 19.0159 1.39547 19.0159 2.10002 19.0159C2.10002 18.9033 2.10002 18.8154 2.10002 18.7268C2.10002 12.5741 2.10002 6.4214 2.10002 0.268074C2.10002 0.178923 2.10311 0.0897708 2.10435 0C7.02999 0 11.9556 0 16.8813 0C16.8831 0.0891517 16.8856 0.178303 16.8856 0.268074C16.8856 6.42759 16.8856 12.5877 16.8856 18.7472C16.8856 18.8339 16.8856 18.92 16.8856 19.0296C17.6062 19.0296 18.2965 19.0296 18.9998 19.0296C18.9998 19.6778 19.0005 20.3031 18.9992 20.9278C19.0005 20.9965 18.9918 21.0646 18.9868 21.1327ZM11.591 19.0122C11.5953 18.9559 11.6027 18.9101 11.6027 18.8636C11.6027 18.1969 11.6095 17.5295 11.6003 16.8627C11.5885 16.0009 11.0257 15.2227 10.2122 14.923C8.88236 14.4327 7.41693 15.4226 7.38845 16.8385C7.37483 17.5189 7.38474 18.2 7.38535 18.881C7.38535 18.9256 7.39959 18.9701 7.4064 19.0122C8.80683 19.0122 10.1936 19.0122 11.591 19.0122ZM10.5428 10.5806C9.83207 10.5806 9.14239 10.5806 8.4496 10.5806C8.4496 11.2839 8.4496 11.973 8.4496 12.6614C9.15477 12.6614 9.84384 12.6614 10.5428 12.6614C10.5428 11.963 10.5428 11.2789 10.5428 10.5806ZM8.44837 2.12169C8.44837 2.82314 8.44837 3.51406 8.44837 4.2087C9.15229 4.2087 9.8426 4.2087 10.5348 4.2087C10.5348 3.5023 10.5348 2.81261 10.5348 2.12169C9.83146 2.12169 9.1461 2.12169 8.44837 2.12169ZM10.541 6.36073C9.83146 6.36073 9.14177 6.36073 8.45456 6.36073C8.45456 7.06837 8.45456 7.75744 8.45456 8.44403C9.15972 8.44403 9.84446 8.44403 10.541 8.44403C10.541 7.74629 10.541 7.06156 10.541 6.36073ZM4.22109 2.12107C4.22109 2.82376 4.22109 3.51345 4.22109 4.2118C4.92068 4.2118 5.60975 4.2118 6.3081 4.2118C6.3081 3.51035 6.3081 2.82128 6.3081 2.12107C5.61284 2.12107 4.92873 2.12107 4.22109 2.12107ZM12.6756 4.20809C13.3864 4.20809 14.0748 4.20809 14.762 4.20809C14.762 3.5023 14.762 2.81323 14.762 2.12602C14.0581 2.12602 13.369 2.12602 12.6756 2.12602C12.6756 2.82561 12.6756 3.51035 12.6756 4.20809ZM6.3081 8.44651C6.3081 7.74382 6.3081 7.05413 6.3081 6.35516C5.60727 6.35516 4.91882 6.35516 4.22109 6.35516C4.22109 7.05661 4.22109 7.74629 4.22109 8.44651C4.91573 8.44651 5.59984 8.44651 6.3081 8.44651ZM12.6843 6.35268C12.6843 7.06713 12.6843 7.7562 12.6843 8.4397C13.3907 8.4397 14.0792 8.4397 14.7608 8.4397C14.7608 7.73267 14.7608 7.04299 14.7608 6.35268C14.0606 6.35268 13.3765 6.35268 12.6843 6.35268ZM6.31244 10.5812C5.59984 10.5812 4.91077 10.5812 4.2248 10.5812C4.2248 11.2851 4.2248 11.9748 4.2248 12.6608C4.92873 12.6608 5.61842 12.6608 6.31244 12.6608C6.31244 11.9612 6.31244 11.2771 6.31244 10.5812ZM14.7633 12.6688C14.7633 11.9587 14.7633 11.2696 14.7633 10.58C14.06 10.58 13.3709 10.58 12.6812 10.58C12.6812 11.2826 12.6812 11.9723 12.6812 12.6688C13.3796 12.6688 14.0643 12.6688 14.7633 12.6688Z" fill="#C2C2C2"/>
</svg>
