<svg width="42" height="41" viewBox="0 0 42 41" fill="none" xmlns="http://www.w3.org/2000/svg">
<path d="M28.2466 21.7207C28.258 21.8143 28.2795 21.9079 28.2795 22.0015C28.2782 25.2527 28.3212 28.5052 28.2618 31.7552C28.1834 36.0071 24.8259 39.7188 20.6144 40.2995C20.1008 40.3704 19.5783 40.4108 19.0597 40.4134C15.7768 40.4235 12.4927 40.4323 9.2098 40.4146C4.88452 40.3919 1.29172 37.6644 0.280923 33.6149C0.0962229 32.8735 0.0190535 32.0879 0.0165234 31.3213C-0.00371776 23.9345 -0.00371776 16.5478 0.00766789 9.16102C0.0152583 4.0729 3.8965 0.109429 8.98589 0.0373196C12.4585 -0.0120182 15.9324 -0.0132833 19.4038 0.0385847C23.9568 0.106899 27.6508 3.46061 28.2327 7.97691C28.2744 8.30457 28.2782 8.63855 28.2782 8.97C28.282 12.0947 28.282 15.2195 28.2795 18.3454C28.2795 18.4707 28.258 18.5959 28.2453 18.7212L28.2631 18.7009C28.1694 18.6921 28.0758 18.6769 27.9822 18.6769C24.0099 18.6756 20.0376 18.6756 16.064 18.6769C15.9539 18.6769 15.8426 18.6807 15.7338 18.6933C14.8495 18.792 14.2423 19.6042 14.3979 20.4784C14.5446 21.2981 15.1582 21.7687 16.1108 21.7687C19.7048 21.7713 23.2989 21.7713 26.893 21.7687C27.3497 21.7687 27.8064 21.7523 28.2618 21.7447L28.2466 21.7207Z" fill="white"/>
<path d="M28.2466 18.7186C28.4339 18.7034 28.6211 18.6743 28.8083 18.6743C31.2082 18.6718 33.608 18.6718 36.0066 18.6718C36.1748 18.6718 36.3444 18.6718 36.605 18.6718C36.4721 18.5099 36.4051 18.415 36.3241 18.334C35.3968 17.4092 34.4632 16.4895 33.5372 15.5622C32.8262 14.85 32.7844 13.8987 33.4258 13.2484C34.0773 12.5881 35.0097 12.6197 35.7346 13.3408C37.6271 15.2207 39.5159 17.1044 41.4034 18.9906C42.1991 19.7863 42.1978 20.6377 41.4059 21.4284C39.4956 23.3361 37.5867 25.2438 35.6701 27.144C35.1387 27.6715 34.4505 27.7892 33.8471 27.4931C33.2475 27.1984 32.8743 26.576 33.0058 25.8954C33.0729 25.5475 33.2702 25.1781 33.5144 24.92C34.3936 23.9914 35.3158 23.1046 36.2267 22.2089C36.338 22.1001 36.486 22.028 36.6163 21.9395C36.5885 21.8825 36.5607 21.8244 36.5328 21.7674C36.3734 21.7674 36.214 21.7674 36.0534 21.7674C33.6384 21.7674 31.2221 21.7687 28.8071 21.7649C28.6198 21.7649 28.4326 21.7358 28.2454 21.7206L28.2631 21.7409C28.2631 20.7263 28.2631 19.7129 28.2631 18.6984L28.2466 18.7186Z" fill="white"/>
</svg>
