<svg width="19" height="19" viewBox="0 0 19 19" fill="none" xmlns="http://www.w3.org/2000/svg">
<path d="M11.4665 0C13.5939 0 15.7218 0 17.8492 0C18.1699 0.100565 18.4879 0.222654 18.6786 0.512846C18.8141 0.718801 18.8946 0.961494 18.9996 1.18749C18.9996 4.09423 18.9996 7.00135 18.9996 9.9081C18.9929 9.91849 18.9833 9.92776 18.9799 9.93927C18.7506 10.7367 18.2856 11.0863 17.4522 11.0863C15.5722 11.0863 13.6927 11.0874 11.8127 11.0841C11.6535 11.0837 11.4891 11.0733 11.3355 11.0344C10.6868 10.87 10.2898 10.3289 10.289 9.61679C10.2872 7.87935 10.2883 6.14154 10.2883 4.40409C10.2883 3.42108 10.2861 2.43769 10.289 1.45467C10.2909 0.809718 10.6234 0.308747 11.1871 0.0916592C11.2783 0.0564056 11.3733 0.0304294 11.4665 0Z" fill="#C2C2C2"/>
<path d="M0 17.8493C0 14.9299 0 12.0109 0 9.09157C0.00593744 9.08081 0.0144725 9.07079 0.0178123 9.05929C0.257165 8.25625 0.713977 7.91336 1.54782 7.91336C3.44 7.91336 5.33219 7.91225 7.22438 7.91374C8.12501 7.91448 8.70837 8.49969 8.71059 9.40144C8.71245 10.1373 8.71096 10.8732 8.71096 11.609C8.71096 13.5818 8.71096 15.5541 8.71096 17.5268C8.71096 18.1306 8.45973 18.5878 7.91349 18.8635C7.794 18.9236 7.66004 18.9551 7.53275 19C5.41754 19 3.30233 19 1.18712 19C0.74923 18.8958 0.386676 18.6824 0.17033 18.2727C0.100194 18.1384 0.0560346 17.9907 0 17.8493Z" fill="#C2C2C2"/>
<path d="M7.53336 0C7.76381 0.112069 8.01838 0.191853 8.21951 0.343258C8.56573 0.603763 8.70934 0.98747 8.71046 1.41719C8.7138 2.58575 8.71899 3.75431 8.70897 4.92288C8.70192 5.73742 8.11337 6.32968 7.29883 6.33339C5.33874 6.34229 3.37901 6.34007 1.41892 6.33413C0.721267 6.3319 0.206936 5.9148 0.0343795 5.2435C0.0269577 5.21418 0.0121141 5.18672 0.000610352 5.15815C0.000610352 3.82222 0.000610352 2.4863 0.000610352 1.15038C0.0232468 1.08804 0.0477388 1.02606 0.0685198 0.963349C0.194319 0.586693 0.433301 0.308004 0.792887 0.138788C0.908296 0.0846085 1.03113 0.045644 1.15062 0C3.27808 0 5.4059 0 7.53336 0Z" fill="#C2C2C2"/>
<path d="M11.4665 18.9995C11.334 18.9513 11.1949 18.916 11.0702 18.8529C10.567 18.598 10.2991 18.1775 10.2931 17.6191C10.2809 16.4256 10.2768 15.2322 10.2939 14.0388C10.3054 13.2383 10.9088 12.6683 11.7203 12.6646C13.1424 12.6583 14.5647 12.6628 15.9868 12.6628C16.4937 12.6628 17.0009 12.6617 17.5079 12.6632C18.2805 12.665 18.7744 13.0469 18.9733 13.7927C18.9777 13.8098 18.9907 13.825 18.9996 13.841C18.9996 15.1647 18.9996 16.488 18.9996 17.8117C18.9028 18.0276 18.8304 18.2596 18.7031 18.4555C18.4983 18.7702 18.1665 18.9112 17.8121 18.9991C15.6969 18.9995 13.5817 18.9995 11.4665 18.9995Z" fill="#C2C2C2"/>
</svg>
