<svg width="16" height="18" viewBox="0 0 16 18" fill="none" xmlns="http://www.w3.org/2000/svg">
<path d="M7.56247 17.9993C7.48629 17.9993 7.42263 17.9993 7.35949 17.9993C5.36208 17.9993 3.36518 17.9999 1.36776 17.9993C0.526114 17.9993 0.0163243 17.4653 0.00275772 16.597C-0.0149832 15.4608 0.0460664 14.3369 0.418104 13.2528C1.16322 11.0819 2.54232 9.49968 4.56582 8.51055C4.68479 8.45259 4.75262 8.46225 4.84759 8.56046C5.71742 9.46372 6.59455 10.3595 7.46437 11.2627C7.52073 11.3212 7.56456 11.4216 7.56508 11.5026C7.5703 13.6306 7.56925 15.7586 7.56925 17.8866C7.56873 17.9129 7.56612 17.9398 7.56247 17.9993ZM6.79753 14.1491C6.80066 13.9693 6.67073 13.826 6.49854 13.8206C6.32269 13.8153 6.16981 13.9671 6.17137 14.1464C6.17294 14.3181 6.31696 14.4636 6.48549 14.4647C6.65925 14.4657 6.79439 14.3283 6.79753 14.1491ZM6.49436 12.7971C6.66708 12.7934 6.79909 12.6522 6.79805 12.4724C6.797 12.2937 6.66134 12.1515 6.49071 12.151C6.31643 12.1499 6.16511 12.3098 6.1719 12.4869C6.17868 12.6592 6.32583 12.8009 6.49436 12.7971ZM6.79439 15.8177C6.797 15.6384 6.6676 15.4983 6.49541 15.494C6.31696 15.4892 6.16877 15.6379 6.17137 15.8177C6.17398 15.9878 6.31852 16.1332 6.48549 16.1343C6.65612 16.1343 6.79179 15.9953 6.79439 15.8177Z" fill="#C2C2C2"/>
<path d="M8.19384 17.9912C8.19384 17.6343 8.19384 17.3005 8.19384 16.9661C8.19384 15.166 8.19541 13.366 8.19071 11.5659C8.19019 11.4188 8.23402 11.3195 8.3342 11.2176C9.19777 10.3363 10.0577 9.45129 10.915 8.56306C11.0042 8.47075 11.0684 8.44284 11.1952 8.50617C13.6794 9.75345 15.1853 11.7704 15.6455 14.5735C15.7614 15.2798 15.753 16.0129 15.7478 16.7337C15.7431 17.4599 15.2005 17.9944 14.5164 17.9966C12.4475 18.0025 10.3786 17.9993 8.30968 17.9987C8.27785 17.9987 8.24706 17.995 8.19384 17.9912ZM11.909 16.1943C12.1563 16.1943 12.4037 16.197 12.6505 16.1938C12.8691 16.1906 12.999 16.0704 13.0011 15.8782C13.0032 15.685 12.8738 15.5557 12.6572 15.5535C12.1563 15.5492 11.6554 15.5492 11.1545 15.5535C10.9426 15.5557 10.8075 15.6925 10.8117 15.8814C10.8158 16.0704 10.9494 16.1911 11.1675 16.1938C11.4143 16.197 11.6617 16.1943 11.909 16.1943Z" fill="#C2C2C2"/>
<path d="M3.50712 3.24396C6.43072 3.24396 9.3371 3.24396 12.2534 3.24396C12.3896 5.03706 11.8782 6.55376 10.4172 7.5912C8.87114 8.68874 7.21236 8.74939 5.60264 7.76133C3.96839 6.75824 3.37041 5.1766 3.50712 3.24396Z" fill="#C2C2C2"/>
<path d="M12.2685 2.58056C9.3402 2.58056 6.43487 2.58056 3.50866 2.58056C3.50397 2.52367 3.49458 2.46678 3.49458 2.40989C3.49353 2.04869 3.4904 1.68749 3.4951 1.32576C3.50501 0.541649 4.03045 0.00280555 4.78914 0.00173216C6.85126 -0.000414626 8.91338 -0.000414626 10.9755 0.00173216C11.7264 0.00226885 12.2534 0.535208 12.2675 1.30698C12.2748 1.72721 12.2685 2.14691 12.2685 2.58056Z" fill="#C2C2C2"/>
<path d="M5.90369 8.66135C7.20921 9.21039 8.56326 9.20932 9.89696 8.6474C9.2275 9.33437 8.54917 10.0305 7.89015 10.7062C7.23425 10.031 6.55175 9.32847 5.90369 8.66135Z" fill="#C2C2C2"/>
</svg>
