<svg width="17" height="18" viewBox="0 0 17 18" fill="none" xmlns="http://www.w3.org/2000/svg">
<path d="M8.64875 17.3315C4.69985 17.313 1.27777 14.657 0.280791 10.8368C-0.951732 6.11294 1.99229 1.23906 6.78069 0.224423C10.1907 -0.498459 13.0725 0.535689 15.3614 3.17216C15.6313 3.48297 15.853 3.83744 16.0806 4.18216C16.3329 4.56404 16.2897 4.90132 15.9849 5.08483C15.7605 5.22002 15.4028 5.22652 15.1394 4.77681C14.5972 3.85138 13.8739 3.08761 12.9935 2.47623C11.8028 1.64928 10.4834 1.19864 9.03249 1.12803C7.37721 1.04765 5.86083 1.47553 4.48939 2.38935C3.1621 3.27391 2.20693 4.47066 1.62992 5.96334C1.02086 7.53919 0.947459 9.1443 1.42272 10.7601C1.96395 12.5989 3.05525 14.0396 4.68034 15.0639C5.88498 15.8235 7.20485 16.2231 8.62831 16.2142C10.9665 16.2003 12.9131 15.3037 14.4392 13.5285C14.7315 13.1884 14.9637 12.7968 15.2234 12.4284C15.3642 12.2286 15.5524 12.1325 15.7981 12.1785C16.0309 12.2221 16.2176 12.3884 16.2344 12.6212C16.2446 12.7643 16.2088 12.9348 16.1345 13.057C14.8439 15.1866 12.9902 16.5585 10.5586 17.1123C9.9361 17.254 9.29033 17.2925 8.65479 17.3785C8.6534 17.3636 8.65108 17.3478 8.64875 17.3315Z" fill="#F06735"/>
</svg>
