<svg width="19" height="20" viewBox="0 0 19 20" fill="none" xmlns="http://www.w3.org/2000/svg">
<path d="M8.41292 0C9.12926 0 9.8456 0 10.5624 0C10.5847 0.0103961 10.606 0.0242576 10.6293 0.0301982C11.159 0.167823 11.4649 0.513369 11.5471 1.04902C11.6144 1.48862 11.6629 1.9312 11.7129 2.37377C11.7253 2.48566 11.7649 2.54407 11.8768 2.58467C12.154 2.68615 12.4273 2.801 12.6956 2.92477C12.7961 2.9713 12.8605 2.96041 12.9426 2.89457C13.2758 2.62873 13.6129 2.36833 13.9501 2.10744C14.5065 1.67575 15.1139 1.7104 15.6164 2.20694C16.0031 2.58912 16.3872 2.97427 16.7689 3.3614C17.2664 3.86586 17.3041 4.46983 16.8748 5.03072C16.612 5.37429 16.3481 5.71736 16.0783 6.05498C16.0144 6.13518 16.0125 6.19607 16.0531 6.28667C16.1719 6.55102 16.2887 6.81736 16.3852 7.09014C16.4328 7.22479 16.506 7.26439 16.6377 7.27925C17.0912 7.33024 17.5451 7.38123 17.9951 7.45647C18.5729 7.55301 18.9664 8.02628 18.9724 8.61292C18.9783 9.20648 18.9783 9.80055 18.9724 10.3941C18.9664 10.9803 18.5724 11.4545 17.9951 11.5511C17.5392 11.6273 17.0788 11.6773 16.6194 11.7317C16.5031 11.7456 16.4357 11.7812 16.3922 11.9015C16.2912 12.1798 16.1738 12.452 16.0531 12.7223C16.0125 12.8129 16.0139 12.8738 16.0783 12.954C16.3446 13.2872 16.604 13.6253 16.864 13.9634C17.3036 14.5357 17.2704 15.1382 16.7684 15.6481C16.3823 16.0397 15.9941 16.4293 15.6026 16.8154C15.1174 17.2941 14.5055 17.3298 13.9644 16.913C13.6219 16.6491 13.2803 16.3842 12.9421 16.1149C12.86 16.0496 12.7956 16.0377 12.6951 16.0842C12.4268 16.208 12.153 16.3214 11.8768 16.4258C11.7773 16.4635 11.7263 16.5095 11.7149 16.6179C11.6798 16.9496 11.6382 17.2808 11.5951 17.612C11.5525 17.9422 11.5278 18.2758 11.306 18.555C11.1114 18.8001 10.8501 18.9229 10.5629 19.01C9.84659 19.01 9.13025 19.01 8.41341 19.01C8.39113 18.9996 8.36985 18.9857 8.34658 18.9798C7.81786 18.8412 7.51044 18.4966 7.42875 17.9605C7.36241 17.5268 7.31242 17.0902 7.26539 16.654C7.25152 16.5268 7.20598 16.461 7.08172 16.4164C6.81538 16.3204 6.5535 16.21 6.29607 16.0917C6.1936 16.0446 6.12379 16.0436 6.0327 16.1164C5.69557 16.3872 5.35399 16.6526 5.00993 16.9144C4.46438 17.3298 3.85547 17.2922 3.37081 16.8135C2.97526 16.4224 2.58219 16.0283 2.1916 15.6323C1.71239 15.1461 1.67575 14.5367 2.09209 13.9912C2.35843 13.6421 2.63219 13.2991 2.89358 12.9466C2.93071 12.8966 2.94259 12.7981 2.92031 12.7392C2.8119 12.4506 2.69358 12.1649 2.56437 11.8847C2.53516 11.8218 2.45249 11.7535 2.38615 11.7436C1.96536 11.6808 1.54209 11.6312 1.11931 11.5817C0.787628 11.5426 0.486636 11.4278 0.28713 11.1535C0.163367 10.9832 0.0935648 10.7738 0 10.5817C0 9.85154 0 9.12133 0 8.39113C0.0118813 8.37133 0.028713 8.35252 0.0351487 8.33074C0.191585 7.79856 0.551488 7.50499 1.09456 7.43271C1.51634 7.37628 1.93862 7.32232 2.3614 7.27727C2.48269 7.26439 2.5416 7.21687 2.58417 7.10152C2.68417 6.82974 2.79407 6.56043 2.91635 6.29855C2.96685 6.19063 2.95101 6.1233 2.88219 6.03617C2.61288 5.69805 2.34803 5.35597 2.08615 5.01191C1.67427 4.47131 1.71585 3.85695 2.19605 3.3718C2.58318 2.9812 2.9718 2.59209 3.3614 2.20447C3.85349 1.71536 4.45844 1.67526 5.01191 2.09754C5.36042 2.36338 5.70251 2.63764 6.0535 2.90051C6.10053 2.93566 6.19112 2.95249 6.24409 2.93219C6.5431 2.81833 6.83915 2.69556 7.13123 2.56387C7.18519 2.53962 7.24261 2.46585 7.25152 2.40793C7.30103 2.08417 7.3337 1.75842 7.37677 1.43367C7.41935 1.1104 7.43123 0.779707 7.63568 0.499013C7.83222 0.231189 8.10153 0.0846539 8.41292 0ZM9.60154 13.4649C11.8134 13.3664 13.5377 11.5308 13.4392 9.38124C13.3377 7.1738 11.5154 5.45399 9.37332 5.54458C7.16687 5.63765 5.44211 7.47331 5.53518 9.62777C5.63072 11.8288 7.46588 13.5605 9.60154 13.4649Z" fill="#C2C2C2"/>
</svg>
