<svg width="69" height="65" viewBox="0 0 69 65" fill="none" xmlns="http://www.w3.org/2000/svg">
<path d="M0 29.9169C0.173848 28.7093 0.291094 27.4895 0.530977 26.2941C2.66566 15.6749 8.49158 7.79487 18.1839 3.2C28.4787 -1.68077 38.6481 -0.893854 48.424 4.98349C49.3 5.51037 49.7757 6.24418 49.6369 7.28569C49.4226 8.89355 47.7259 9.6614 46.296 8.77238C44.4161 7.60426 42.4566 6.61858 40.3623 5.90655C24.8481 0.637768 8.25574 10.2264 4.88121 26.4139C1.83012 41.0426 11.0764 55.6196 25.5057 58.932C40.5968 62.3955 55.4143 52.6707 58.4317 37.3164C58.9384 34.7405 59.0368 32.1402 58.8171 29.5262C58.7039 28.1702 59.5044 27.1137 60.7672 26.9749C61.9571 26.8442 62.9706 27.7577 63.1 29.0796C64.5986 44.3455 54.7337 58.7945 40.0416 62.8543C22.987 67.5662 5.4634 57.3323 1.01479 40.0188C0.571406 38.2952 0.412383 36.4954 0.119941 34.7323C0.08625 34.5336 0.0404297 34.3362 0 34.1388C0 32.7324 0 31.3247 0 29.9169Z" fill="#13E301"/>
<path d="M69 5.67951C68.6334 6.18461 68.3262 6.74961 67.8936 7.18799C57.6797 17.5309 47.451 27.8601 37.2263 38.1921C37.1158 38.3037 37.0053 38.4181 36.8921 38.5284C35.8018 39.593 34.6024 39.5903 33.5203 38.4984C29.325 34.2657 25.1338 30.0303 20.9453 25.7921C19.9251 24.7601 19.855 23.449 20.7526 22.5301C21.6474 21.6152 22.9627 21.6724 23.9775 22.6962C27.538 26.2849 31.0945 29.8805 34.6469 33.4774C34.8194 33.6531 34.9474 33.8736 35.2709 34.3065C35.5148 33.9199 35.6213 33.6558 35.8059 33.4693C45.5333 23.6288 55.2687 13.7978 64.9948 3.95593C65.6538 3.28882 66.3559 2.86814 67.3262 3.06827C68.1887 3.24662 68.6092 3.89467 69 4.589C69 4.95387 69 5.31737 69 5.67951Z" fill="#13E301"/>
</svg>
