<svg width="22" height="22" viewBox="0 0 22 22" fill="none" xmlns="http://www.w3.org/2000/svg">
<path d="M5.64502 3.52448C5.64502 4.44607 5.64444 5.33298 5.64502 6.21989C5.6462 7.55173 6.55074 8.45275 7.88787 8.45334C9.68814 8.45392 11.4884 8.45451 13.2887 8.45334C14.6123 8.45275 15.5192 7.54997 15.521 6.23165C15.5221 5.41762 15.521 4.603 15.521 3.78897C15.521 3.70962 15.521 3.63028 15.521 3.53506C15.6068 3.53095 15.6779 3.52448 15.7484 3.52448C16.814 3.52389 17.8796 3.52331 18.9446 3.52448C20.2529 3.52625 21.1633 4.43138 21.1633 5.73677C21.1645 10.1308 21.1645 14.5242 21.1633 18.9182C21.1627 20.2218 20.2511 21.1293 18.9428 21.1293C13.3657 21.1299 7.78854 21.1305 2.2114 21.1293C0.918356 21.1293 0.00146937 20.2177 0.000881622 18.9299C-0.000293874 14.5289 -0.000293874 10.1278 0.000881622 5.72677C0.00205712 4.43784 0.916593 3.52683 2.20905 3.52507C3.27464 3.52331 4.34022 3.52448 5.40522 3.52448C5.47693 3.52448 5.54922 3.52448 5.64502 3.52448ZM5.50573 15.042C5.21421 15.1913 4.91445 15.3265 4.63351 15.4928C3.90412 15.9242 3.33635 16.519 2.9214 17.256C2.75507 17.5523 2.80503 17.8843 3.03072 18.1071C3.25289 18.3257 3.59555 18.3898 3.86121 18.2188C4.00168 18.1283 4.11394 17.979 4.20916 17.8367C5.00967 16.636 6.10876 16.0435 7.56226 16.2498C8.58964 16.3956 9.35195 16.9739 9.9062 17.842C9.99436 17.9801 10.1031 18.1236 10.2377 18.2111C10.5063 18.3863 10.8683 18.3222 11.0876 18.0995C11.3156 17.8679 11.3532 17.5387 11.1734 17.2278C10.6191 16.268 9.82803 15.5751 8.80476 15.146C8.73599 15.1172 8.6684 15.0861 8.58494 15.0496C10.1771 13.9235 10.2095 11.964 9.15564 10.8008C8.05773 9.58945 6.19398 9.5489 5.05022 10.6968C3.91234 11.8382 3.88119 13.9053 5.50573 15.042ZM15.1677 10.5669C14.3743 10.5669 13.5814 10.5663 12.7879 10.5681C12.7004 10.5681 12.6104 10.5704 12.5264 10.5922C12.182 10.6815 11.9563 11.0118 11.998 11.3545C12.0415 11.7136 12.3442 11.9739 12.7344 11.9745C14.3431 11.9769 15.9512 11.9763 17.5599 11.9751C18.023 11.9745 18.3457 11.6795 18.3421 11.2651C18.3386 10.8519 18.0165 10.5681 17.5475 10.5675C16.754 10.5663 15.9606 10.5669 15.1677 10.5669ZM15.5339 13.3834C14.8433 13.3834 14.1533 13.3816 13.4627 13.384C13.0177 13.3851 12.698 13.6849 12.6998 14.0916C12.7021 14.4971 13.0218 14.791 13.4703 14.7916C14.8362 14.7934 16.2022 14.7928 17.5681 14.7916C18.0177 14.791 18.3374 14.5007 18.3416 14.0951C18.3457 13.6808 18.023 13.3851 17.5604 13.3845C16.8851 13.3828 16.2092 13.3834 15.5339 13.3834ZM15.8724 17.6087C16.4455 17.6087 17.0179 17.611 17.591 17.6081C18.0218 17.6057 18.338 17.3089 18.3421 16.9116C18.3463 16.5049 18.0265 16.2022 17.5828 16.201C16.4443 16.1993 15.3064 16.1993 14.168 16.201C13.723 16.2016 13.4033 16.5014 13.4056 16.9087C13.408 17.3142 13.7277 17.6069 14.1762 17.6081C14.7416 17.6104 15.307 17.6087 15.8724 17.6087Z" fill="#B7B7B7"/>
<path d="M13.4051 3.5198C13.6443 3.5198 13.8617 3.5198 14.0968 3.5198C14.1021 3.59798 14.1104 3.66086 14.1104 3.72375C14.1109 4.56717 14.1121 5.41059 14.1104 6.25401C14.1098 6.76359 13.8294 7.04453 13.3198 7.04453C11.4978 7.0457 9.67521 7.04512 7.8532 7.04453C7.34362 7.04453 7.05738 6.76182 7.0568 6.2593C7.05621 5.3718 7.05738 4.4843 7.05856 3.5968C7.05856 3.58269 7.06444 3.56918 7.07325 3.53097C7.29013 3.53097 7.51348 3.53097 7.76209 3.53097C7.76209 3.42929 7.76209 3.35112 7.76209 3.27295C7.76209 2.64935 7.7568 2.02575 7.76386 1.40274C7.77326 0.622795 8.38746 0.0103615 9.17034 0.00507172C10.1107 -0.00198126 11.0511 -0.00139351 11.9915 0.00507172C12.7862 0.0103615 13.3962 0.623383 13.4039 1.41919C13.4104 2.04279 13.4051 2.66581 13.4057 3.28941C13.4051 3.3617 13.4051 3.43341 13.4051 3.5198ZM9.18209 4.21335C10.1272 4.21335 11.0552 4.21335 11.9762 4.21335C11.9762 3.27178 11.9762 2.34548 11.9762 1.4239C11.0364 1.4239 10.1137 1.4239 9.18209 1.4239C9.18209 2.35606 9.18209 3.27706 9.18209 4.21335Z" fill="#B7B7B7"/>
<path d="M8.46564 12.6775C8.46622 13.4551 7.83087 14.0887 7.05151 14.0875C6.27334 14.0858 5.64151 13.4486 5.64503 12.6705C5.64856 11.9029 6.27863 11.2751 7.04799 11.2716C7.82852 11.2687 8.46505 11.8993 8.46564 12.6775Z" fill="#B7B7B7"/>
</svg>
